<mxfile host="app.diagrams.net" modified="2024-01-06T03:27:50.460Z" agent="Mozilla/5.0 (Windows NT 10.0; Win64; x64) AppleWebKit/537.36 (KHTML, like Gecko) Chrome/120.0.0.0 Safari/537.36 Edg/120.0.0.0" etag="BTNWyKU-r8q2sMYyZ5Hq" version="22.1.16" type="github">
  <diagram name="第 1 页" id="K8ERxwVBEQSHCBhxJBWr">
    <mxGraphModel dx="1415" dy="81" grid="1" gridSize="10" guides="1" tooltips="1" connect="1" arrows="1" fold="1" page="0" pageScale="1" pageWidth="827" pageHeight="1169" background="none" math="0" shadow="0">
      <root>
        <mxCell id="0" />
        <mxCell id="1" parent="0" />
        <mxCell id="wwi6y-t12sEpQis3Y10L-39" value="" style="rounded=1;whiteSpace=wrap;html=1;" parent="1" vertex="1">
          <mxGeometry x="-120" y="1120" width="960" height="370" as="geometry" />
        </mxCell>
        <mxCell id="wwi6y-t12sEpQis3Y10L-31" value="" style="rounded=1;whiteSpace=wrap;html=1;" parent="1" vertex="1">
          <mxGeometry x="110" y="1360" width="560" height="100" as="geometry" />
        </mxCell>
        <mxCell id="wwi6y-t12sEpQis3Y10L-18" value="" style="edgeStyle=orthogonalEdgeStyle;rounded=0;orthogonalLoop=1;jettySize=auto;html=1;" parent="1" source="wwi6y-t12sEpQis3Y10L-15" target="wwi6y-t12sEpQis3Y10L-17" edge="1">
          <mxGeometry relative="1" as="geometry" />
        </mxCell>
        <mxCell id="wwi6y-t12sEpQis3Y10L-25" value="" style="rounded=1;whiteSpace=wrap;html=1;" parent="1" vertex="1">
          <mxGeometry x="110" y="1180" width="560" height="100" as="geometry" />
        </mxCell>
        <mxCell id="wwi6y-t12sEpQis3Y10L-44" value="" style="edgeStyle=orthogonalEdgeStyle;rounded=0;orthogonalLoop=1;jettySize=auto;html=1;" parent="1" source="wwi6y-t12sEpQis3Y10L-12" target="wwi6y-t12sEpQis3Y10L-43" edge="1">
          <mxGeometry relative="1" as="geometry" />
        </mxCell>
        <mxCell id="wwi6y-t12sEpQis3Y10L-12" value="" style="rounded=1;whiteSpace=wrap;html=1;" parent="1" vertex="1">
          <mxGeometry x="-115" y="800" width="775" height="240" as="geometry" />
        </mxCell>
        <mxCell id="wwi6y-t12sEpQis3Y10L-3" value="" style="edgeStyle=orthogonalEdgeStyle;rounded=0;orthogonalLoop=1;jettySize=auto;html=1;" parent="1" source="wwi6y-t12sEpQis3Y10L-1" target="wwi6y-t12sEpQis3Y10L-2" edge="1">
          <mxGeometry relative="1" as="geometry" />
        </mxCell>
        <mxCell id="wwi6y-t12sEpQis3Y10L-40" style="edgeStyle=orthogonalEdgeStyle;rounded=0;orthogonalLoop=1;jettySize=auto;html=1;entryX=0;entryY=0.5;entryDx=0;entryDy=0;" parent="1" source="wwi6y-t12sEpQis3Y10L-1" target="wwi6y-t12sEpQis3Y10L-39" edge="1">
          <mxGeometry relative="1" as="geometry" />
        </mxCell>
        <mxCell id="wwi6y-t12sEpQis3Y10L-1" value="MONAI" style="rounded=0;whiteSpace=wrap;html=1;" parent="1" vertex="1">
          <mxGeometry x="-300" y="880" width="120" height="60" as="geometry" />
        </mxCell>
        <mxCell id="wwi6y-t12sEpQis3Y10L-5" value="" style="edgeStyle=orthogonalEdgeStyle;rounded=0;orthogonalLoop=1;jettySize=auto;html=1;" parent="1" source="wwi6y-t12sEpQis3Y10L-2" target="wwi6y-t12sEpQis3Y10L-4" edge="1">
          <mxGeometry relative="1" as="geometry" />
        </mxCell>
        <mxCell id="wwi6y-t12sEpQis3Y10L-2" value="Data" style="rounded=0;whiteSpace=wrap;html=1;" parent="1" vertex="1">
          <mxGeometry x="-75" y="880" width="120" height="60" as="geometry" />
        </mxCell>
        <mxCell id="wwi6y-t12sEpQis3Y10L-7" value="" style="edgeStyle=orthogonalEdgeStyle;rounded=0;orthogonalLoop=1;jettySize=auto;html=1;" parent="1" source="wwi6y-t12sEpQis3Y10L-4" target="wwi6y-t12sEpQis3Y10L-6" edge="1">
          <mxGeometry relative="1" as="geometry" />
        </mxCell>
        <mxCell id="wwi6y-t12sEpQis3Y10L-11" style="edgeStyle=orthogonalEdgeStyle;rounded=0;orthogonalLoop=1;jettySize=auto;html=1;entryX=0;entryY=0.5;entryDx=0;entryDy=0;" parent="1" source="wwi6y-t12sEpQis3Y10L-4" target="wwi6y-t12sEpQis3Y10L-8" edge="1">
          <mxGeometry relative="1" as="geometry" />
        </mxCell>
        <mxCell id="wwi6y-t12sEpQis3Y10L-4" value="MetaTensor" style="rounded=0;whiteSpace=wrap;html=1;" parent="1" vertex="1">
          <mxGeometry x="125" y="880" width="120" height="60" as="geometry" />
        </mxCell>
        <mxCell id="wwi6y-t12sEpQis3Y10L-36" value="" style="edgeStyle=orthogonalEdgeStyle;rounded=0;orthogonalLoop=1;jettySize=auto;html=1;" parent="1" source="wwi6y-t12sEpQis3Y10L-6" target="wwi6y-t12sEpQis3Y10L-35" edge="1">
          <mxGeometry relative="1" as="geometry" />
        </mxCell>
        <mxCell id="wwi6y-t12sEpQis3Y10L-6" value="MetaObj" style="rounded=0;whiteSpace=wrap;html=1;" parent="1" vertex="1">
          <mxGeometry x="315" y="820" width="120" height="60" as="geometry" />
        </mxCell>
        <mxCell id="wwi6y-t12sEpQis3Y10L-38" value="" style="edgeStyle=orthogonalEdgeStyle;rounded=0;orthogonalLoop=1;jettySize=auto;html=1;" parent="1" source="wwi6y-t12sEpQis3Y10L-8" target="wwi6y-t12sEpQis3Y10L-37" edge="1">
          <mxGeometry relative="1" as="geometry" />
        </mxCell>
        <mxCell id="wwi6y-t12sEpQis3Y10L-8" value="Tensor" style="rounded=0;whiteSpace=wrap;html=1;" parent="1" vertex="1">
          <mxGeometry x="315" y="960" width="120" height="60" as="geometry" />
        </mxCell>
        <mxCell id="wwi6y-t12sEpQis3Y10L-16" value="" style="edgeStyle=orthogonalEdgeStyle;rounded=0;orthogonalLoop=1;jettySize=auto;html=1;" parent="1" source="wwi6y-t12sEpQis3Y10L-14" target="wwi6y-t12sEpQis3Y10L-15" edge="1">
          <mxGeometry relative="1" as="geometry" />
        </mxCell>
        <mxCell id="wwi6y-t12sEpQis3Y10L-34" style="edgeStyle=orthogonalEdgeStyle;rounded=0;orthogonalLoop=1;jettySize=auto;html=1;entryX=0;entryY=0.5;entryDx=0;entryDy=0;" parent="1" source="wwi6y-t12sEpQis3Y10L-14" target="wwi6y-t12sEpQis3Y10L-31" edge="1">
          <mxGeometry relative="1" as="geometry" />
        </mxCell>
        <mxCell id="wwi6y-t12sEpQis3Y10L-14" value="Transforms" style="rounded=0;whiteSpace=wrap;html=1;" parent="1" vertex="1">
          <mxGeometry x="-80" y="1200" width="120" height="60" as="geometry" />
        </mxCell>
        <mxCell id="wwi6y-t12sEpQis3Y10L-22" value="" style="edgeStyle=orthogonalEdgeStyle;rounded=0;orthogonalLoop=1;jettySize=auto;html=1;" parent="1" source="wwi6y-t12sEpQis3Y10L-15" target="wwi6y-t12sEpQis3Y10L-21" edge="1">
          <mxGeometry relative="1" as="geometry" />
        </mxCell>
        <mxCell id="wwi6y-t12sEpQis3Y10L-15" value="Vanilla Transforms" style="whiteSpace=wrap;html=1;rounded=0;" parent="1" vertex="1">
          <mxGeometry x="130" y="1200" width="120" height="60" as="geometry" />
        </mxCell>
        <mxCell id="wwi6y-t12sEpQis3Y10L-28" value="" style="edgeStyle=orthogonalEdgeStyle;rounded=0;orthogonalLoop=1;jettySize=auto;html=1;" parent="1" source="wwi6y-t12sEpQis3Y10L-17" target="wwi6y-t12sEpQis3Y10L-27" edge="1">
          <mxGeometry relative="1" as="geometry" />
        </mxCell>
        <mxCell id="wwi6y-t12sEpQis3Y10L-17" value="Dictionary &lt;br&gt;Transforms" style="whiteSpace=wrap;html=1;rounded=0;" parent="1" vertex="1">
          <mxGeometry x="130" y="1380" width="120" height="60" as="geometry" />
        </mxCell>
        <mxCell id="wwi6y-t12sEpQis3Y10L-24" value="" style="edgeStyle=orthogonalEdgeStyle;rounded=0;orthogonalLoop=1;jettySize=auto;html=1;" parent="1" source="wwi6y-t12sEpQis3Y10L-21" target="wwi6y-t12sEpQis3Y10L-23" edge="1">
          <mxGeometry relative="1" as="geometry" />
        </mxCell>
        <mxCell id="wwi6y-t12sEpQis3Y10L-21" value="IO" style="whiteSpace=wrap;html=1;rounded=0;" parent="1" vertex="1">
          <mxGeometry x="330" y="1200" width="120" height="60" as="geometry" />
        </mxCell>
        <mxCell id="wwi6y-t12sEpQis3Y10L-80" style="edgeStyle=orthogonalEdgeStyle;rounded=0;orthogonalLoop=1;jettySize=auto;html=1;entryX=0;entryY=0.5;entryDx=0;entryDy=0;dashed=1;fontStyle=1;strokeWidth=3;strokeColor=#82b366;curved=1;exitX=1;exitY=0.5;exitDx=0;exitDy=0;labelBorderColor=none;fillColor=#d5e8d4;" parent="1" source="wwi6y-t12sEpQis3Y10L-23" target="wwi6y-t12sEpQis3Y10L-49" edge="1">
          <mxGeometry relative="1" as="geometry">
            <Array as="points">
              <mxPoint x="1059" y="1230" />
              <mxPoint x="1059" y="1060" />
            </Array>
          </mxGeometry>
        </mxCell>
        <mxCell id="wwi6y-t12sEpQis3Y10L-84" value="&lt;span style=&quot;font-size: 20px;&quot;&gt;①&lt;/span&gt;" style="edgeLabel;html=1;align=center;verticalAlign=middle;resizable=0;points=[];fontColor=default;fontStyle=1;fontSize=20;labelBorderColor=none;" parent="wwi6y-t12sEpQis3Y10L-80" vertex="1" connectable="0">
          <mxGeometry x="0.1161" relative="1" as="geometry">
            <mxPoint y="52" as="offset" />
          </mxGeometry>
        </mxCell>
        <mxCell id="wwi6y-t12sEpQis3Y10L-23" value="LoadImage" style="whiteSpace=wrap;html=1;rounded=0;" parent="1" vertex="1">
          <mxGeometry x="530" y="1200" width="120" height="60" as="geometry" />
        </mxCell>
        <mxCell id="wwi6y-t12sEpQis3Y10L-26" value="class monai.transforms.LoadImage(reader=None, image_only=True, dtype=&amp;lt;class &#39;numpy.float32&#39;&amp;gt;, &lt;br&gt;ensure_channel_first=False, simple_keys=False, prune_meta_pattern=None, prune_meta_sep=&#39;.&#39;, expanduser=True, *args, **kwargs)" style="text;html=1;align=left;verticalAlign=middle;resizable=0;points=[];autosize=1;strokeColor=none;fillColor=none;" parent="1" vertex="1">
          <mxGeometry x="110" y="1140" width="740" height="40" as="geometry" />
        </mxCell>
        <mxCell id="wwi6y-t12sEpQis3Y10L-30" value="" style="edgeStyle=orthogonalEdgeStyle;rounded=0;orthogonalLoop=1;jettySize=auto;html=1;" parent="1" source="wwi6y-t12sEpQis3Y10L-27" target="wwi6y-t12sEpQis3Y10L-29" edge="1">
          <mxGeometry relative="1" as="geometry" />
        </mxCell>
        <mxCell id="wwi6y-t12sEpQis3Y10L-27" value="IO" style="whiteSpace=wrap;html=1;rounded=0;" parent="1" vertex="1">
          <mxGeometry x="330" y="1380" width="120" height="60" as="geometry" />
        </mxCell>
        <mxCell id="wwi6y-t12sEpQis3Y10L-29" value="LoadImaged" style="whiteSpace=wrap;html=1;rounded=0;" parent="1" vertex="1">
          <mxGeometry x="530" y="1380" width="120" height="60" as="geometry" />
        </mxCell>
        <mxCell id="wwi6y-t12sEpQis3Y10L-33" value="class monai.transforms.LoadImaged(*args, **kwargs)" style="text;html=1;align=center;verticalAlign=middle;resizable=0;points=[];autosize=1;strokeColor=none;fillColor=none;" parent="1" vertex="1">
          <mxGeometry x="110" y="1330" width="310" height="30" as="geometry" />
        </mxCell>
        <mxCell id="wwi6y-t12sEpQis3Y10L-35" value="metadata" style="rounded=0;whiteSpace=wrap;html=1;" parent="1" vertex="1">
          <mxGeometry x="515" y="820" width="120" height="60" as="geometry" />
        </mxCell>
        <mxCell id="wwi6y-t12sEpQis3Y10L-37" value="image" style="rounded=0;whiteSpace=wrap;html=1;" parent="1" vertex="1">
          <mxGeometry x="515" y="960" width="120" height="60" as="geometry" />
        </mxCell>
        <mxCell id="wwi6y-t12sEpQis3Y10L-46" value="" style="edgeStyle=orthogonalEdgeStyle;rounded=0;orthogonalLoop=1;jettySize=auto;html=1;" parent="1" source="wwi6y-t12sEpQis3Y10L-43" target="wwi6y-t12sEpQis3Y10L-45" edge="1">
          <mxGeometry relative="1" as="geometry" />
        </mxCell>
        <mxCell id="wwi6y-t12sEpQis3Y10L-43" value="Core Points" style="whiteSpace=wrap;html=1;rounded=1;" parent="1" vertex="1">
          <mxGeometry x="1067.5" y="890" width="120" height="60" as="geometry" />
        </mxCell>
        <mxCell id="wwi6y-t12sEpQis3Y10L-48" value="" style="edgeStyle=orthogonalEdgeStyle;rounded=0;orthogonalLoop=1;jettySize=auto;html=1;" parent="1" source="wwi6y-t12sEpQis3Y10L-45" target="wwi6y-t12sEpQis3Y10L-47" edge="1">
          <mxGeometry relative="1" as="geometry" />
        </mxCell>
        <mxCell id="wwi6y-t12sEpQis3Y10L-45" value="arguments" style="whiteSpace=wrap;html=1;rounded=1;" parent="1" vertex="1">
          <mxGeometry x="1267.5" y="890" width="120" height="60" as="geometry" />
        </mxCell>
        <mxCell id="wwi6y-t12sEpQis3Y10L-50" value="" style="edgeStyle=orthogonalEdgeStyle;rounded=0;orthogonalLoop=1;jettySize=auto;html=1;" parent="1" source="wwi6y-t12sEpQis3Y10L-47" target="wwi6y-t12sEpQis3Y10L-49" edge="1">
          <mxGeometry relative="1" as="geometry" />
        </mxCell>
        <mxCell id="wwi6y-t12sEpQis3Y10L-60" value="" style="edgeStyle=orthogonalEdgeStyle;rounded=0;orthogonalLoop=1;jettySize=auto;html=1;" parent="1" source="wwi6y-t12sEpQis3Y10L-47" target="wwi6y-t12sEpQis3Y10L-59" edge="1">
          <mxGeometry relative="1" as="geometry" />
        </mxCell>
        <mxCell id="wwi6y-t12sEpQis3Y10L-77" value="" style="edgeStyle=orthogonalEdgeStyle;rounded=0;orthogonalLoop=1;jettySize=auto;html=1;" parent="1" source="wwi6y-t12sEpQis3Y10L-47" target="wwi6y-t12sEpQis3Y10L-76" edge="1">
          <mxGeometry relative="1" as="geometry" />
        </mxCell>
        <mxCell id="wwi6y-t12sEpQis3Y10L-47" value="reader" style="whiteSpace=wrap;html=1;rounded=1;" parent="1" vertex="1">
          <mxGeometry x="1467.5" y="890" width="120" height="60" as="geometry" />
        </mxCell>
        <mxCell id="wwi6y-t12sEpQis3Y10L-52" value="" style="edgeStyle=orthogonalEdgeStyle;rounded=0;orthogonalLoop=1;jettySize=auto;html=1;" parent="1" source="wwi6y-t12sEpQis3Y10L-49" edge="1">
          <mxGeometry relative="1" as="geometry">
            <mxPoint x="1527.5" y="1170" as="targetPoint" />
          </mxGeometry>
        </mxCell>
        <mxCell id="wwi6y-t12sEpQis3Y10L-62" value="" style="edgeStyle=orthogonalEdgeStyle;rounded=0;orthogonalLoop=1;jettySize=auto;html=1;" parent="1" source="wwi6y-t12sEpQis3Y10L-49" target="wwi6y-t12sEpQis3Y10L-61" edge="1">
          <mxGeometry relative="1" as="geometry" />
        </mxCell>
        <mxCell id="wwi6y-t12sEpQis3Y10L-81" style="edgeStyle=orthogonalEdgeStyle;rounded=0;orthogonalLoop=1;jettySize=auto;html=1;entryX=0.5;entryY=0;entryDx=0;entryDy=0;exitX=1;exitY=0.5;exitDx=0;exitDy=0;fontStyle=1;dashed=1;strokeWidth=3;strokeColor=#82b366;curved=1;labelBorderColor=none;fillColor=#d5e8d4;" parent="1" source="wwi6y-t12sEpQis3Y10L-61" target="wwi6y-t12sEpQis3Y10L-76" edge="1">
          <mxGeometry relative="1" as="geometry">
            <Array as="points">
              <mxPoint x="1880" y="1060" />
              <mxPoint x="1880" y="730" />
              <mxPoint x="1528" y="730" />
            </Array>
          </mxGeometry>
        </mxCell>
        <mxCell id="wwi6y-t12sEpQis3Y10L-86" value="&lt;font style=&quot;font-size: 20px;&quot;&gt;&lt;b style=&quot;font-size: 20px;&quot;&gt;②&lt;/b&gt;&lt;/font&gt;" style="edgeLabel;html=1;align=center;verticalAlign=middle;resizable=0;points=[];fontColor=default;fontSize=20;" parent="wwi6y-t12sEpQis3Y10L-81" vertex="1" connectable="0">
          <mxGeometry x="-0.3594" relative="1" as="geometry">
            <mxPoint as="offset" />
          </mxGeometry>
        </mxCell>
        <mxCell id="wwi6y-t12sEpQis3Y10L-49" value="image_only=True" style="whiteSpace=wrap;html=1;rounded=1;" parent="1" vertex="1">
          <mxGeometry x="1467.5" y="1030" width="120" height="60" as="geometry" />
        </mxCell>
        <mxCell id="wwi6y-t12sEpQis3Y10L-54" value="" style="edgeStyle=orthogonalEdgeStyle;rounded=0;orthogonalLoop=1;jettySize=auto;html=1;" parent="1" target="wwi6y-t12sEpQis3Y10L-53" edge="1">
          <mxGeometry relative="1" as="geometry">
            <mxPoint x="1527.5" y="1230" as="sourcePoint" />
          </mxGeometry>
        </mxCell>
        <mxCell id="wwi6y-t12sEpQis3Y10L-58" value="" style="edgeStyle=orthogonalEdgeStyle;rounded=0;orthogonalLoop=1;jettySize=auto;html=1;" parent="1" source="wwi6y-t12sEpQis3Y10L-53" target="wwi6y-t12sEpQis3Y10L-57" edge="1">
          <mxGeometry relative="1" as="geometry" />
        </mxCell>
        <mxCell id="wwi6y-t12sEpQis3Y10L-69" value="" style="edgeStyle=orthogonalEdgeStyle;rounded=0;orthogonalLoop=1;jettySize=auto;html=1;" parent="1" source="wwi6y-t12sEpQis3Y10L-53" target="wwi6y-t12sEpQis3Y10L-68" edge="1">
          <mxGeometry relative="1" as="geometry" />
        </mxCell>
        <mxCell id="wwi6y-t12sEpQis3Y10L-53" value="ensure_channel_first=True" style="whiteSpace=wrap;html=1;rounded=1;" parent="1" vertex="1">
          <mxGeometry x="1442.5" y="1170" width="170" height="60" as="geometry" />
        </mxCell>
        <mxCell id="wwi6y-t12sEpQis3Y10L-71" value="" style="edgeStyle=orthogonalEdgeStyle;rounded=0;orthogonalLoop=1;jettySize=auto;html=1;" parent="1" source="wwi6y-t12sEpQis3Y10L-57" target="wwi6y-t12sEpQis3Y10L-70" edge="1">
          <mxGeometry relative="1" as="geometry" />
        </mxCell>
        <mxCell id="wwi6y-t12sEpQis3Y10L-73" value="" style="edgeStyle=orthogonalEdgeStyle;rounded=0;orthogonalLoop=1;jettySize=auto;html=1;" parent="1" source="wwi6y-t12sEpQis3Y10L-57" target="wwi6y-t12sEpQis3Y10L-72" edge="1">
          <mxGeometry relative="1" as="geometry" />
        </mxCell>
        <mxCell id="wwi6y-t12sEpQis3Y10L-57" value="simple_keys=True" style="whiteSpace=wrap;html=1;rounded=1;" parent="1" vertex="1">
          <mxGeometry x="1467.5" y="1315" width="120" height="60" as="geometry" />
        </mxCell>
        <mxCell id="wwi6y-t12sEpQis3Y10L-59" value="读取器" style="whiteSpace=wrap;html=1;rounded=1;" parent="1" vertex="1">
          <mxGeometry x="1667.5" y="890" width="120" height="60" as="geometry" />
        </mxCell>
        <mxCell id="wwi6y-t12sEpQis3Y10L-61" value="仅加载图像" style="whiteSpace=wrap;html=1;rounded=1;" parent="1" vertex="1">
          <mxGeometry x="1667.5" y="1030" width="120" height="60" as="geometry" />
        </mxCell>
        <mxCell id="wwi6y-t12sEpQis3Y10L-68" value="确保颜色通道为&lt;br&gt;第1维度" style="whiteSpace=wrap;html=1;rounded=1;" parent="1" vertex="1">
          <mxGeometry x="1667.5" y="1170" width="120" height="60" as="geometry" />
        </mxCell>
        <mxCell id="wwi6y-t12sEpQis3Y10L-70" value="去除多余的键值对" style="whiteSpace=wrap;html=1;rounded=1;" parent="1" vertex="1">
          <mxGeometry x="1667.5" y="1315" width="120" height="60" as="geometry" />
        </mxCell>
        <mxCell id="wwi6y-t12sEpQis3Y10L-75" value="" style="edgeStyle=orthogonalEdgeStyle;rounded=0;orthogonalLoop=1;jettySize=auto;html=1;" parent="1" source="wwi6y-t12sEpQis3Y10L-72" target="wwi6y-t12sEpQis3Y10L-74" edge="1">
          <mxGeometry relative="1" as="geometry" />
        </mxCell>
        <mxCell id="wwi6y-t12sEpQis3Y10L-72" value="dtype&lt;span style=&quot;color: rgb(206, 214, 221); font-family: Roboto, sans-serif; font-variant-ligatures: none; text-align: left; background-color: rgb(20, 24, 30);&quot;&gt;&amp;nbsp;&lt;/span&gt;" style="whiteSpace=wrap;html=1;rounded=1;" parent="1" vertex="1">
          <mxGeometry x="1467.5" y="1455" width="120" height="60" as="geometry" />
        </mxCell>
        <mxCell id="wwi6y-t12sEpQis3Y10L-74" value="重采样计算数据类型" style="whiteSpace=wrap;html=1;rounded=1;" parent="1" vertex="1">
          <mxGeometry x="1667.5" y="1455" width="120" height="60" as="geometry" />
        </mxCell>
        <mxCell id="wwi6y-t12sEpQis3Y10L-79" value="" style="edgeStyle=orthogonalEdgeStyle;rounded=0;orthogonalLoop=1;jettySize=auto;html=1;" parent="1" source="wwi6y-t12sEpQis3Y10L-76" target="wwi6y-t12sEpQis3Y10L-78" edge="1">
          <mxGeometry relative="1" as="geometry" />
        </mxCell>
        <mxCell id="wwi6y-t12sEpQis3Y10L-82" style="edgeStyle=orthogonalEdgeStyle;rounded=0;orthogonalLoop=1;jettySize=auto;html=1;entryX=1;entryY=0.5;entryDx=0;entryDy=0;dashed=1;curved=1;strokeColor=#82b366;labelBorderColor=none;fillColor=#d5e8d4;fontStyle=1;strokeWidth=3;" parent="1" source="wwi6y-t12sEpQis3Y10L-76" target="wwi6y-t12sEpQis3Y10L-29" edge="1">
          <mxGeometry relative="1" as="geometry">
            <Array as="points">
              <mxPoint x="970" y="780" />
              <mxPoint x="970" y="1410" />
            </Array>
          </mxGeometry>
        </mxCell>
        <mxCell id="wwi6y-t12sEpQis3Y10L-87" value="③" style="edgeLabel;html=1;align=center;verticalAlign=middle;resizable=0;points=[];fontColor=default;fontSize=20;fontStyle=1" parent="wwi6y-t12sEpQis3Y10L-82" vertex="1" connectable="0">
          <mxGeometry x="0.0044" y="12" relative="1" as="geometry">
            <mxPoint as="offset" />
          </mxGeometry>
        </mxCell>
        <mxCell id="wwi6y-t12sEpQis3Y10L-76" value="keys" style="whiteSpace=wrap;html=1;rounded=1;" parent="1" vertex="1">
          <mxGeometry x="1467.5" y="750" width="120" height="60" as="geometry" />
        </mxCell>
        <mxCell id="wwi6y-t12sEpQis3Y10L-78" value="&lt;div style=&quot;&quot;&gt;&#39;image&#39;&lt;/div&gt;" style="whiteSpace=wrap;html=1;rounded=1;align=center;" parent="1" vertex="1">
          <mxGeometry x="1667.5" y="750" width="120" height="60" as="geometry" />
        </mxCell>
        <mxCell id="3Mr-Jb6tD8oDNMLCtvPO-3" value="&lt;h1&gt;解决问题&lt;/h1&gt;&lt;p&gt;Lorem ipsum dolor sit amet, consectetur adipisicing elit, sed do eiusmod tempor incididunt ut labore et dolore magna aliqua.&lt;/p&gt;" style="text;html=1;strokeColor=none;fillColor=none;spacing=5;spacingTop=-20;whiteSpace=wrap;overflow=hidden;rounded=0;" vertex="1" parent="1">
          <mxGeometry x="-300" y="1760" width="190" height="120" as="geometry" />
        </mxCell>
        <mxCell id="3Mr-Jb6tD8oDNMLCtvPO-4" value="nii, nii.gz -&amp;gt; NibabelReader" style="rounded=0;whiteSpace=wrap;html=1;" vertex="1" parent="1">
          <mxGeometry x="-300" y="2020" width="120" height="60" as="geometry" />
        </mxCell>
      </root>
    </mxGraphModel>
  </diagram>
</mxfile>
